<svg id="SvgjsSvg1000" xmlns="http://www.w3.org/2000/svg" version="1.1" xmlns:xlink="http://www.w3.org/1999/xlink" xmlns:svgjs="http://svgjs.com/svgjs" width="115" height="22"><defs id="SvgjsDefs1001"></defs><path id="SvgjsPath1007" d="M80.04 19.67C80.44000000000001 19.67 80.80000000000001 19.71 81.13000000000001 19.89C85.79 20.580000000000002 87.86000000000001 24.560000000000002 87.86000000000001 28.35C87.86000000000001 33.35 84.08000000000001 37 79.02000000000001 37C74.62 37 70.77000000000001 33.72 70.77000000000001 28.86C70.77000000000001 23.43 74.29 19.740000000000002 80.04 19.67ZM36.95 30.47C36.95 32.04 36.980000000000004 33.57 37.09 35.14C37.09 36.45 36.07 36.82 35.02 36.82C33.82 36.82 33.49 35.910000000000004 33.24 34.01C32.15 35.91 30.26 36.93 27.89 36.93C23.05 36.93 20 33.28 20 28.83C20 23.5 23.64 19.82 28.36 19.82C30.4 19.82 32.22 20.73 33.31 22.37C33.38 21.93 33.46 21.35 33.53 21.02C33.78 20.33 34.29 19.89 35.13 19.89C36.580000000000005 19.89 37.02 20.73 37.02 22.11L36.980000000000004 24.919999999999998ZM59.03 23.46C57.94 23.46 57.47 22.810000000000002 57.47 21.79C57.47 20.73 58.16 20.07 59.18 20.07L61.03 20.07L61.11 17.41C61.14 16.17 61.65 15 63.25 15C64.45 15 64.89 15.66 64.89 16.82C64.89 17.63 64.82000000000001 18.9 64.82000000000001 20.03L67.94000000000001 20.03C69.00000000000001 20 69.62000000000002 20.580000000000002 69.62000000000002 21.71C69.62000000000002 22.7 69.14000000000001 23.43 68.09000000000002 23.43L64.82000000000002 23.43L64.82000000000002 29.85C64.82000000000002 32.04 65.25000000000003 33.32 66.74000000000002 33.32C67.62000000000002 33.32 67.83000000000003 33.02 68.42000000000003 33.02C69.36000000000003 33.02 69.87000000000003 33.900000000000006 69.87000000000003 34.7C69.87000000000003 35.580000000000005 69.58000000000003 36.050000000000004 69.07000000000004 36.34C68.34000000000003 36.74 67.76000000000003 36.89 66.34000000000003 36.89C62.89000000000003 36.89 60.96000000000003 34.99 60.96000000000003 30.36C60.96000000000003 28.13 61.07000000000003 25.689999999999998 61.03000000000003 23.46ZM122.7 29.37C122.84 31.560000000000002 124.66 33.39 127.13 33.39C128.48 33.39 129.75 32.95 130.66 32.4C131.1 32.15 131.53 31.93 132.07999999999998 31.93C132.95 31.93 133.74999999999997 32.839999999999996 133.74999999999997 33.83C133.74999999999997 34.519999999999996 133.31999999999996 35.07 132.65999999999997 35.5C131.31999999999996 36.38 129.60999999999996 36.96 126.80999999999997 36.96C122.29999999999997 36.96 118.72999999999998 33.35 118.65999999999997 28.94C118.65999999999997 23.830000000000002 122.29999999999997 19.71 127.02999999999997 19.71C131.27999999999997 19.71 134.36999999999998 23.060000000000002 134.36999999999998 26.42C134.36999999999998 28.32 134.07999999999998 29.270000000000003 131.52999999999997 29.3C129.49999999999997 29.37 127.02999999999997 29.34 122.69999999999997 29.37ZM105.33 29.37C105.47 31.560000000000002 107.28999999999999 33.39 109.75999999999999 33.39C111.10999999999999 33.39 112.38 32.95 113.28999999999999 32.4C113.72999999999999 32.15 114.16 31.93 114.71 31.93C115.58 31.93 116.38 32.839999999999996 116.38 33.83C116.38 34.519999999999996 115.94999999999999 35.07 115.28999999999999 35.5C113.94999999999999 36.38 112.24 36.96 109.44 36.96C104.92999999999999 36.96 101.36 33.35 101.28999999999999 28.94C101.28999999999999 23.830000000000002 104.92999999999999 19.71 109.64999999999999 19.71C113.91 19.71 116.99999999999999 23.060000000000002 116.99999999999999 26.42C116.99999999999999 28.32 116.70999999999998 29.270000000000003 114.15999999999998 29.3C112.12999999999998 29.37 109.64999999999998 29.34 105.32999999999998 29.37ZM40.64 22.15C40.61 20.66 41.12 19.82 42.68 19.82C43.92 19.82 44.35 20.4 44.46 21.6L44.53 22.880000000000003C45.370000000000005 20.870000000000005 47.7 19.71 49.95 19.71C53.99 19.71 56.24 22.37 56.24 26.89C56.24 28.39 56.21 29.16 56.21 31.6L56.21 34.74C56.21 36.2 55.44 36.78 54.06 36.78C53.010000000000005 36.78 52.17 36.230000000000004 52.17 35.03C52.17 32.95 52.28 30.32 52.28 28.020000000000003C52.24 25.540000000000003 51.74 23.210000000000004 48.97 23.210000000000004C45.19 23.170000000000005 44.57 26.020000000000003 44.57 29.410000000000004L44.61 35.14C44.61 36.45 43.519999999999996 36.85 42.61 36.85C41.48 36.85 40.61 36.45 40.61 35.1C40.61 32.910000000000004 40.72 30.720000000000002 40.68 25.36ZM90.68 21.75C90.65 20.47 91.41000000000001 19.85 92.65 19.85C93.48 19.85 94.03 20.290000000000003 94.17 21.17L94.32000000000001 23.17C95.37 20.87 97.45 19.71 99.27000000000001 19.71C100.54 19.71 101.19000000000001 20.25 101.19000000000001 21.6C101.19000000000001 22.55 100.72000000000001 23.5 99.56000000000002 23.5L98.94000000000001 23.5C96.54 23.5 94.54 25.62 94.54 29.27C94.54 31.09 94.61 33.1 94.57000000000001 35.14C94.54 36.34 93.7 36.82 92.54 36.82C91.30000000000001 36.82 90.57000000000001 36.31 90.61 34.59C90.65 31.780000000000005 90.72 28.210000000000004 90.72 25.620000000000005C90.72 24.380000000000006 90.67999999999999 23.030000000000005 90.67999999999999 21.750000000000004ZM83.9 28.21C83.9 25.54 82.26 23.32 79.31 23.17C76.55 23.32 74.73 25.400000000000002 74.73 28.860000000000003C74.73 31.640000000000004 76.88000000000001 33.5 78.95 33.5C81.53 33.5 83.9 31.45 83.9 28.21ZM24.04 28.72C24.04 31.49 25.96 33.5 28.4 33.5C31.09 33.5 33.16 31.45 33.16 28.35C33.16 25.03 30.949999999999996 23.25 28.58 23.25C25.959999999999997 23.25 24.04 25.47 24.04 28.72ZM109.73 22.95C107.29 22.95 105.58 24.89 105.36 26.82C107.25 26.82 111.25 26.78 112.78 26.67C113.04 26.64 113.22 26.53 113.22 26.35C113.22 24.340000000000003 111.55 22.950000000000003 109.73 22.950000000000003ZM127.1 22.95C124.66 22.95 122.94999999999999 24.89 122.72999999999999 26.82C124.63 26.82 128.63 26.78 130.14999999999998 26.67C130.40999999999997 26.64 130.58999999999997 26.53 130.58999999999997 26.35C130.58999999999997 24.340000000000003 128.92 22.950000000000003 127.09999999999998 22.950000000000003Z " fill="#00ab6b" fill-opacity="1" transform="matrix(1,0,0,1,-20,-15)"></path></svg>